<svg width="36" height="36" viewBox="0 0 36 36" fill="none" xmlns="http://www.w3.org/2000/svg">
<g clip-path="url(#clip0_1_650)">
<path d="M12.4375 5.5635C12.4375 7.461 10.8985 9 9.00105 9C7.10355 9 5.56455 7.461 5.56455 5.5635C5.56455 4.467 6.71355 2.3415 7.68255 0.7425C8.28255 -0.2475 9.71955 -0.2475 10.3195 0.7425C11.2885 2.34 12.4375 4.4655 12.4375 5.5635ZM22.4845 36C29.4325 36 35.2585 32.2425 35.9935 24.222C36.0835 23.2485 35.254 22.416 34.282 22.5255C27.682 23.2725 22.483 28.26 22.483 36M22.483 36C15.535 36 9.74205 32.2215 9.00555 24.201C8.91555 23.2275 9.74505 22.395 10.717 22.5045C17.317 23.2515 22.483 28.26 22.483 36ZM17.4445 21.543C18.0295 18.7965 19.2835 16.5 21.1525 14.139C21.829 13.284 23.131 13.284 23.8075 14.139C25.6915 16.518 26.9515 18.831 27.5485 21.5565C25.5205 22.68 23.806 24.2055 22.4905 26.0625C21.1795 24.1995 19.468 22.671 17.4445 21.543ZM6.01755 24.4725C5.89155 23.1 6.38655 21.7575 7.37355 20.7915C8.35305 19.8315 9.69255 19.3665 11.053 19.521C12.3175 19.6635 13.5205 19.9275 14.6515 20.3025C15.124 18.402 15.925 16.5975 17.0515 14.7855C15.9865 13.113 14.128 11.997 11.998 11.997H5.99805C2.68455 11.997 -0.00195312 14.6835 -0.00195312 17.997V29.997C-0.00195312 33.3105 2.68455 35.997 5.99805 35.997H11.998C12.0955 35.997 12.187 35.973 12.2845 35.9685C8.74305 33.4425 6.47505 29.4585 6.01755 24.4725Z" fill="#D72638"/>
</g>
<defs>
<clipPath id="clip0_1_650">
<rect width="36" height="36" fill="white"/>
</clipPath>
</defs>
</svg>
