<svg width="36" height="36" viewBox="0 0 36 36" fill="none" xmlns="http://www.w3.org/2000/svg">
<g clip-path="url(#clip0_1_664)">
<path d="M34.4141 10.2553L31.1411 6.98083L32.5616 5.56033C32.7049 5.42196 32.8192 5.25644 32.8978 5.07344C32.9764 4.89043 33.0178 4.6936 33.0195 4.49443C33.0212 4.29526 32.9833 4.09774 32.9079 3.9134C32.8324 3.72905 32.7211 3.56158 32.5802 3.42074C32.4394 3.2799 32.2719 3.16852 32.0876 3.0931C31.9032 3.01768 31.7057 2.97972 31.5065 2.98145C31.3074 2.98319 31.1105 3.02456 30.9275 3.10318C30.7445 3.18179 30.579 3.29607 30.4406 3.43933L29.0201 4.85983L25.7456 1.58683C24.7135 0.603314 23.3425 0.0546875 21.9169 0.0546875C20.4912 0.0546875 19.1202 0.603314 18.0881 1.58683C17.585 2.08958 17.1858 2.68656 16.9135 3.34364C16.6411 4.00073 16.501 4.70504 16.501 5.41633C16.501 6.12762 16.6411 6.83193 16.9135 7.48902C17.1858 8.1461 17.585 8.74308 18.0881 9.24583L21.3611 12.5188L12.5201 21.3598L9.24563 18.0868C8.21354 17.1033 6.84255 16.5547 5.41688 16.5547C3.99122 16.5547 2.62023 17.1033 1.58813 18.0868C1.08497 18.5896 0.685815 19.1866 0.413482 19.8436C0.141149 20.5007 0.000976563 21.205 0.000976562 21.9163C0.000976563 22.6276 0.141149 23.3319 0.413482 23.989C0.685815 24.6461 1.08497 25.2431 1.58813 25.7458L4.86113 29.0188L3.44063 30.4393C3.29737 30.5777 3.18309 30.7432 3.10448 30.9262C3.02587 31.1092 2.98449 31.3061 2.98276 31.5052C2.98103 31.7044 3.01898 31.9019 3.0944 32.0863C3.16982 32.2706 3.2812 32.4381 3.42204 32.5789C3.56288 32.7198 3.73036 32.8311 3.9147 32.9066C4.09905 32.982 4.29657 33.0199 4.49573 33.0182C4.6949 33.0165 4.89173 32.9751 5.07474 32.8965C5.25774 32.8179 5.42326 32.7036 5.56163 32.5603L6.98213 31.1398L10.2566 34.4128C10.7594 34.9158 11.3562 35.3147 12.0132 35.5869C12.6701 35.8591 13.3743 35.9992 14.0854 35.9992C14.7965 35.9992 15.5006 35.8591 16.1576 35.5869C16.8145 35.3147 17.4114 34.9158 17.9141 34.4128C18.4172 33.9102 18.8164 33.3134 19.0887 32.6564C19.361 31.9994 19.5012 31.2952 19.5012 30.5841C19.5012 29.8729 19.361 29.1687 19.0887 28.5118C18.8164 27.8548 18.4172 27.2579 17.9141 26.7553L14.6411 23.4823L23.4911 14.6398L26.7641 17.9128C27.2668 18.4158 27.8637 18.8147 28.5207 19.0869C29.1776 19.3591 29.8818 19.4992 30.5929 19.4992C31.304 19.4992 32.0081 19.3591 32.6651 19.0869C33.322 18.8147 33.9189 18.4158 34.4216 17.9128C34.9247 17.4102 35.3239 16.8134 35.5962 16.1564C35.8685 15.4994 36.0087 14.7952 36.0087 14.0841C36.0087 13.3729 35.8685 12.6687 35.5962 12.0118C35.3239 11.3548 34.9247 10.7579 34.4216 10.2553H34.4141Z" fill="#D72638"/>
</g>
<defs>
<clipPath id="clip0_1_664">
<rect width="36" height="36" fill="white"/>
</clipPath>
</defs>
</svg>
