<svg width="62" height="57" viewBox="0 0 62 57" fill="none" xmlns="http://www.w3.org/2000/svg">
<path d="M48.4375 45.125L47 46.5L43.5625 43.125H46.4375L48.4375 45.125ZM54 45.125C54 46.7917 53.4167 48.2083 52.25 49.375C51.0833 50.5417 49.6667 51.125 48 51.125H42V49.125H48C49.125 49.125 50.0729 48.7292 50.8438 47.9375C51.6146 47.1458 52 46.2083 52 45.125C52 44.75 51.9479 44.3958 51.8438 44.0625C51.7396 43.7292 51.6042 43.3958 51.4375 43.0625V43.125H53.625C53.75 43.4167 53.8438 43.7292 53.9062 44.0625C53.9688 44.3958 54 44.75 54 45.125ZM47 46.5L40.5625 40.125L47 33.6875L48.4375 35.125L43.4375 40.125L48.4375 45.125L47 46.5ZM8 38.3125V40.125L3 38.125V36.3125L8 38.3125ZM8 35.1875V37L3 35V33.1875L8 35.1875ZM31.0625 54.25L0 40.75V17.5L32.9375 0L62 11.4375V34.6875L56.75 38L55.6875 36.3125L60 33.5625V12.8125L33.0625 2.1875L2 18.6875V39.4375L30.9375 52L37.125 48.0625L38.1875 49.75L31.0625 54.25ZM31 54.125C30.9167 54.125 30.8438 54.1146 30.7812 54.0938C30.7188 54.0729 30.6458 54.0417 30.5625 54H30.625L0.625 41C0.416667 40.9583 0.260417 40.8542 0.15625 40.6875C0.0520833 40.5208 0 40.3333 0 40.125V18.125C0 17.8333 0.09375 17.5938 0.28125 17.4062C0.46875 17.2188 0.708333 17.125 1 17.125C1.08333 17.125 1.15625 17.125 1.21875 17.125C1.28125 17.125 1.33333 17.1458 1.375 17.1875L31.375 29.1875C31.5417 29.2708 31.6875 29.3958 31.8125 29.5625C31.9375 29.7292 32 29.9167 32 30.125V53.125C32 53.375 31.9062 53.6042 31.7188 53.8125C31.5312 54.0208 31.2917 54.125 31 54.125ZM2 39.4375L30 51.5625V30.8125L2 19.5625V39.4375ZM31 54.125C30.7083 54.125 30.4688 54.0208 30.2812 53.8125C30.0938 53.6042 30 53.375 30 53.125V30.125C30 29.9167 30.0417 29.7396 30.125 29.5938C30.2083 29.4479 30.3333 29.3333 30.5 29.25L60.5 11.25C60.5833 11.2083 60.6667 11.1771 60.75 11.1562C60.8333 11.1354 60.9167 11.125 61 11.125C61.2917 11.125 61.5312 11.2188 61.7188 11.4062C61.9062 11.5938 62 11.8333 62 12.125V34.125C62 34.2917 61.9583 34.4479 61.875 34.5938C61.7917 34.7396 61.6875 34.8542 61.5625 34.9375L56.75 38L55.6875 36.3125L60 33.5625V13.875L32 30.6875V51.3125L37.125 48.0625L38.1875 49.75L31.5625 53.9375C31.4792 53.9792 31.3854 54.0208 31.2812 54.0625C31.1771 54.1042 31.0833 54.125 31 54.125ZM19 33.125C18.9167 33.125 18.8438 33.1146 18.7812 33.0938C18.7188 33.0729 18.6667 33.0625 18.625 33.0625L13.625 31.0625C13.4583 30.9792 13.3125 30.8542 13.1875 30.6875C13.0625 30.5208 13 30.3333 13 30.125V23.3125C13 23.0208 13.0938 22.7812 13.2812 22.5938C13.4688 22.4062 13.7083 22.3125 14 22.3125C14.0833 22.3125 14.1562 22.3229 14.2188 22.3438C14.2812 22.3646 14.3333 22.375 14.375 22.375L19.375 24.375C19.5417 24.4583 19.6875 24.5833 19.8125 24.75C19.9375 24.9167 20 25.1042 20 25.3125V32.125C20 32.375 19.9062 32.6042 19.7188 32.8125C19.5312 33.0208 19.2917 33.125 19 33.125ZM15 29.4375L18 30.625V26L15 24.8125V29.4375ZM19 26.3125C18.9167 26.3125 18.8438 26.3021 18.7812 26.2812C18.7188 26.2604 18.6667 26.25 18.625 26.25L13.625 24.25C13.4583 24.1667 13.3125 24.0417 13.1875 23.875C13.0625 23.7083 13 23.5208 13 23.3125C13 23.1458 13.0417 22.9896 13.125 22.8438C13.2083 22.6979 13.3333 22.5625 13.5 22.4375L42.8125 4.3125C42.8542 4.27083 42.9271 4.23958 43.0312 4.21875C43.1354 4.19792 43.2292 4.1875 43.3125 4.1875C43.3958 4.1875 43.4688 4.1875 43.5312 4.1875C43.5938 4.1875 43.6458 4.20833 43.6875 4.25L48.75 6.25C48.9167 6.29167 49.0521 6.39583 49.1562 6.5625C49.2604 6.72917 49.3125 6.91667 49.3125 7.125C49.3125 7.33333 49.2708 7.51042 49.1875 7.65625C49.1042 7.80208 49 7.91667 48.875 8L19.5 26.1875C19.4583 26.2292 19.3854 26.2604 19.2812 26.2812C19.1771 26.3021 19.0833 26.3125 19 26.3125ZM16.1875 23.125L18.875 24.1875L46.125 7.3125L43.4375 6.25L16.1875 23.125ZM47 56.125C45.2083 56.125 43.5208 55.7708 41.9375 55.0625C40.3542 54.3958 38.9792 53.4792 37.8125 52.3125C36.6458 51.1458 35.7083 49.7708 35 48.1875C34.3333 46.6042 34 44.9167 34 43.125C34 41.3333 34.3333 39.6458 35 38.0625C35.7083 36.4792 36.6458 35.0938 37.8125 33.9062C38.9792 32.7188 40.3542 31.7917 41.9375 31.125C43.5208 30.4583 45.2083 30.125 47 30.125C48.7917 30.125 50.4792 30.4583 52.0625 31.125C53.6458 31.7917 55.0208 32.7188 56.1875 33.9062C57.3542 35.0938 58.2917 36.4792 59 38.0625C59.6667 39.6458 60 41.3333 60 43.125C60 44.9167 59.6667 46.6042 59 48.1875C58.2917 49.7708 57.3542 51.1458 56.1875 52.3125C55.0208 53.4792 53.6458 54.3958 52.0625 55.0625C50.4792 55.7708 48.7917 56.125 47 56.125ZM47 32.125C43.9583 32.125 41.3646 33.1979 39.2188 35.3438C37.0729 37.4896 36 40.0833 36 43.125C36 46.1667 37.0729 48.7604 39.2188 50.9062C41.3646 53.0521 43.9583 54.125 47 54.125C50.0417 54.125 52.6354 53.0521 54.7812 50.9062C56.9271 48.7604 58 46.1667 58 43.125C58 40.0833 56.9271 37.4896 54.7812 35.3438C52.6354 33.1979 50.0417 32.125 47 32.125ZM48 51.125H42V49.125H48C49.125 49.125 50.0729 48.7292 50.8438 47.9375C51.6146 47.1458 52 46.2083 52 45.125C52 44 51.6146 43.0521 50.8438 42.2812C50.0729 41.5104 49.125 41.125 48 41.125H42V39.125H48C49.6667 39.125 51.0833 39.7083 52.25 40.875C53.4167 42.0417 54 43.4583 54 45.125C54 46.7917 53.4167 48.2083 52.25 49.375C51.0833 50.5417 49.6667 51.125 48 51.125Z" fill="#D72638"/>
</svg>
