<svg width="20" height="21" viewBox="0 0 20 21" fill="none" xmlns="http://www.w3.org/2000/svg">
<path fill-rule="evenodd" clip-rule="evenodd" d="M3.39404 7.05577C3.84677 4.70157 5.90673 3 8.30407 3H11.6959C14.0933 3 16.1532 4.70156 16.606 7.05576L18.482 16.8112C18.5383 17.1041 18.461 17.4069 18.271 17.6368C18.081 17.8668 17.7983 18 17.5 18H2.50001C2.20171 18 1.91899 17.8668 1.72902 17.6368C1.53905 17.4069 1.46167 17.1041 1.518 16.8112L3.39404 7.05577ZM8.30407 5C6.86567 5 5.62969 6.02094 5.35805 7.43346L3.71064 16H16.2894L14.642 7.43346C14.3703 6.02094 13.1343 5 11.6959 5H8.30407Z" fill="#100404"/>
<path fill-rule="evenodd" clip-rule="evenodd" d="M20 18H0V16H20V18Z" fill="#100404"/>
<path fill-rule="evenodd" clip-rule="evenodd" d="M6 17C6 16.4477 6.44772 16 7 16H13C13.5523 16 14 16.4477 14 17V18C14 19.6569 12.6569 21 11 21H9C7.34315 21 6 19.6569 6 18V17ZM8 18C8 18.5523 8.44772 19 9 19H11C11.5523 19 12 18.5523 12 18H8Z" fill="#100404"/>
<path fill-rule="evenodd" clip-rule="evenodd" d="M7 4C7 4.55228 7.44772 5 8 5H12C12.5523 5 13 4.55228 13 4V3C13 1.34315 11.6569 0 10 0C8.34315 0 7 1.34315 7 3V4ZM9 3C9 2.44772 9.44772 2 10 2C10.5523 2 11 2.44772 11 3H9Z" fill="#100404"/>
</svg>
